<mxfile host="app.diagrams.net" modified="2023-12-11T14:50:35.758Z" agent="Mozilla/5.0 (Macintosh; Intel Mac OS X 10_15_7) AppleWebKit/537.36 (KHTML, like Gecko) Chrome/119.0.0.0 Safari/537.36" etag="0a7lD1TM242dmDVtstPa" version="22.1.7" type="github">
  <diagram id="sXHVxptQRnJ6s1UwZ6cX" name="Page-1">
    <mxGraphModel dx="1102" dy="1650" grid="1" gridSize="10" guides="1" tooltips="1" connect="1" arrows="1" fold="1" page="1" pageScale="1" pageWidth="1169" pageHeight="827" math="0" shadow="0">
      <root>
        <mxCell id="0" />
        <mxCell id="1" parent="0" />
        <mxCell id="cmmHMNiwm2tOop7mbwFN-15" value="Kund" style="swimlane;childLayout=stackLayout;horizontal=1;startSize=30;horizontalStack=0;rounded=1;fontSize=14;fontStyle=0;strokeWidth=2;resizeParent=0;resizeLast=1;shadow=0;dashed=0;align=center;" parent="1" vertex="1">
          <mxGeometry x="250" y="50" width="180" height="150" as="geometry" />
        </mxCell>
        <mxCell id="cmmHMNiwm2tOop7mbwFN-16" value="+Juridiskt namn&#xa;+Org. nummer&#xa;+Kortnamn&#xa;+Kundnummer&#xa;+Kontaktperson&#xa;+Adress (kontor)&#xa;+Adress (primär)" style="align=left;strokeColor=none;fillColor=none;spacingLeft=4;fontSize=12;verticalAlign=top;resizable=0;rotatable=0;part=1;" parent="cmmHMNiwm2tOop7mbwFN-15" vertex="1">
          <mxGeometry y="30" width="180" height="120" as="geometry" />
        </mxCell>
        <mxCell id="W-h9gqMpr9lS0zG7lGx4-1" value="Adress" style="swimlane;childLayout=stackLayout;horizontal=1;startSize=30;horizontalStack=0;rounded=1;fontSize=14;fontStyle=0;strokeWidth=2;resizeParent=0;resizeLast=1;shadow=0;dashed=0;align=center;" parent="1" vertex="1">
          <mxGeometry x="20" y="-110" width="180" height="120" as="geometry" />
        </mxCell>
        <mxCell id="W-h9gqMpr9lS0zG7lGx4-2" value="+Namn&#xa;*Kund&#xa;+Rad 1, 2, 3&#xa;+Typ (Kontor, Primär, Annan)&#xa;Position&#xa;" style="align=left;strokeColor=none;fillColor=none;spacingLeft=4;fontSize=12;verticalAlign=top;resizable=0;rotatable=0;part=1;" parent="W-h9gqMpr9lS0zG7lGx4-1" vertex="1">
          <mxGeometry y="30" width="180" height="90" as="geometry" />
        </mxCell>
        <mxCell id="W-h9gqMpr9lS0zG7lGx4-4" style="edgeStyle=orthogonalEdgeStyle;rounded=0;orthogonalLoop=1;jettySize=auto;html=1;endArrow=ERmany;endFill=0;startArrow=ERone;startFill=0;exitX=0;exitY=0.425;exitDx=0;exitDy=0;exitPerimeter=0;entryX=0.5;entryY=1;entryDx=0;entryDy=0;" parent="1" source="cmmHMNiwm2tOop7mbwFN-16" target="W-h9gqMpr9lS0zG7lGx4-2" edge="1">
          <mxGeometry relative="1" as="geometry">
            <mxPoint x="80" y="70" as="targetPoint" />
          </mxGeometry>
        </mxCell>
        <mxCell id="W-h9gqMpr9lS0zG7lGx4-5" value="Order" style="swimlane;childLayout=stackLayout;horizontal=1;startSize=30;horizontalStack=0;rounded=1;fontSize=14;fontStyle=0;strokeWidth=2;resizeParent=0;resizeLast=1;shadow=0;dashed=0;align=center;" parent="1" vertex="1">
          <mxGeometry x="510" y="50" width="180" height="150" as="geometry" />
        </mxCell>
        <mxCell id="W-h9gqMpr9lS0zG7lGx4-6" value="*Adress&#xa;*Kund&#xa;*Beställare&#xa;+Ordertyp&#xa;+Innehåll&#xa;*Behållare" style="align=left;strokeColor=none;fillColor=none;spacingLeft=4;fontSize=12;verticalAlign=top;resizable=0;rotatable=0;part=1;" parent="W-h9gqMpr9lS0zG7lGx4-5" vertex="1">
          <mxGeometry y="30" width="180" height="120" as="geometry" />
        </mxCell>
        <mxCell id="W-h9gqMpr9lS0zG7lGx4-7" value="Person" style="swimlane;childLayout=stackLayout;horizontal=1;startSize=30;horizontalStack=0;rounded=1;fontSize=14;fontStyle=0;strokeWidth=2;resizeParent=0;resizeLast=1;shadow=0;dashed=0;align=center;" parent="1" vertex="1">
          <mxGeometry x="250" y="310" width="180" height="130" as="geometry" />
        </mxCell>
        <mxCell id="W-h9gqMpr9lS0zG7lGx4-8" value="+Namn&#xa;+Beskrivning&#xa;+Mobil&#xa;+Telefon&#xa;+E-post" style="align=left;strokeColor=none;fillColor=none;spacingLeft=4;fontSize=12;verticalAlign=top;resizable=0;rotatable=0;part=1;" parent="W-h9gqMpr9lS0zG7lGx4-7" vertex="1">
          <mxGeometry y="30" width="180" height="100" as="geometry" />
        </mxCell>
        <mxCell id="W-h9gqMpr9lS0zG7lGx4-10" style="edgeStyle=orthogonalEdgeStyle;rounded=0;orthogonalLoop=1;jettySize=auto;html=1;entryX=0.5;entryY=0;entryDx=0;entryDy=0;endArrow=ERmany;endFill=0;startArrow=ERone;startFill=0;exitX=0.5;exitY=1;exitDx=0;exitDy=0;" parent="1" source="cmmHMNiwm2tOop7mbwFN-16" target="W-h9gqMpr9lS0zG7lGx4-7" edge="1">
          <mxGeometry relative="1" as="geometry">
            <mxPoint x="260" y="141" as="sourcePoint" />
            <mxPoint x="210" y="350" as="targetPoint" />
          </mxGeometry>
        </mxCell>
        <mxCell id="W-h9gqMpr9lS0zG7lGx4-11" value="Körning" style="swimlane;childLayout=stackLayout;horizontal=1;startSize=30;horizontalStack=0;rounded=1;fontSize=14;fontStyle=0;strokeWidth=2;resizeParent=0;resizeLast=1;shadow=0;dashed=0;align=center;" parent="1" vertex="1">
          <mxGeometry x="790" y="190" width="180" height="150" as="geometry" />
        </mxCell>
        <mxCell id="W-h9gqMpr9lS0zG7lGx4-12" value="*Order&#xa;*Kund&#xa;*Beställare&#xa;*Förare&#xa;+Datum&#xa;+Typ&#xa;*Behållare" style="align=left;strokeColor=none;fillColor=none;spacingLeft=4;fontSize=12;verticalAlign=top;resizable=0;rotatable=0;part=1;" parent="W-h9gqMpr9lS0zG7lGx4-11" vertex="1">
          <mxGeometry y="30" width="180" height="120" as="geometry" />
        </mxCell>
        <mxCell id="W-h9gqMpr9lS0zG7lGx4-13" value="Förare" style="swimlane;childLayout=stackLayout;horizontal=1;startSize=30;horizontalStack=0;rounded=1;fontSize=14;fontStyle=0;strokeWidth=2;resizeParent=0;resizeLast=1;shadow=0;dashed=0;align=center;" parent="1" vertex="1">
          <mxGeometry x="670" y="430" width="180" height="110" as="geometry" />
        </mxCell>
        <mxCell id="W-h9gqMpr9lS0zG7lGx4-14" value="+Namn&#xa;+Mobil&#xa;*Aktuell körning" style="align=left;strokeColor=none;fillColor=none;spacingLeft=4;fontSize=12;verticalAlign=top;resizable=0;rotatable=0;part=1;" parent="W-h9gqMpr9lS0zG7lGx4-13" vertex="1">
          <mxGeometry y="30" width="180" height="80" as="geometry" />
        </mxCell>
        <mxCell id="W-h9gqMpr9lS0zG7lGx4-16" value="Behållare" style="swimlane;childLayout=stackLayout;horizontal=1;startSize=30;horizontalStack=0;rounded=1;fontSize=14;fontStyle=0;strokeWidth=2;resizeParent=0;resizeLast=1;shadow=0;dashed=0;align=center;" parent="1" vertex="1">
          <mxGeometry x="770" y="-120" width="180" height="120" as="geometry" />
        </mxCell>
        <mxCell id="W-h9gqMpr9lS0zG7lGx4-17" value="+Typ&#xa;+ID&#xa;+Nuvarande position" style="align=left;strokeColor=none;fillColor=none;spacingLeft=4;fontSize=12;verticalAlign=top;resizable=0;rotatable=0;part=1;" parent="W-h9gqMpr9lS0zG7lGx4-16" vertex="1">
          <mxGeometry y="30" width="180" height="90" as="geometry" />
        </mxCell>
        <mxCell id="W-h9gqMpr9lS0zG7lGx4-20" style="edgeStyle=orthogonalEdgeStyle;rounded=0;orthogonalLoop=1;jettySize=auto;html=1;entryX=-0.006;entryY=0.45;entryDx=0;entryDy=0;endArrow=ERmany;endFill=0;startArrow=ERone;startFill=0;exitX=0.5;exitY=0;exitDx=0;exitDy=0;entryPerimeter=0;" parent="1" source="W-h9gqMpr9lS0zG7lGx4-13" target="W-h9gqMpr9lS0zG7lGx4-12" edge="1">
          <mxGeometry relative="1" as="geometry">
            <mxPoint x="690" y="400" as="sourcePoint" />
            <mxPoint x="220" y="360" as="targetPoint" />
            <Array as="points">
              <mxPoint x="760" y="274" />
            </Array>
          </mxGeometry>
        </mxCell>
        <mxCell id="W-h9gqMpr9lS0zG7lGx4-21" style="edgeStyle=orthogonalEdgeStyle;rounded=0;orthogonalLoop=1;jettySize=auto;html=1;endArrow=ERone;endFill=0;startArrow=ERone;startFill=0;exitX=0.5;exitY=1;exitDx=0;exitDy=0;entryX=1;entryY=0.413;entryDx=0;entryDy=0;entryPerimeter=0;" parent="1" source="W-h9gqMpr9lS0zG7lGx4-12" target="W-h9gqMpr9lS0zG7lGx4-14" edge="1">
          <mxGeometry relative="1" as="geometry">
            <mxPoint x="950" y="450" as="sourcePoint" />
            <mxPoint x="1050" y="590" as="targetPoint" />
          </mxGeometry>
        </mxCell>
        <mxCell id="W-h9gqMpr9lS0zG7lGx4-23" style="edgeStyle=orthogonalEdgeStyle;rounded=0;orthogonalLoop=1;jettySize=auto;html=1;entryX=-0.006;entryY=0.125;entryDx=0;entryDy=0;endArrow=ERmany;endFill=0;startArrow=ERone;startFill=0;exitX=0.5;exitY=1;exitDx=0;exitDy=0;entryPerimeter=0;" parent="1" source="W-h9gqMpr9lS0zG7lGx4-6" target="W-h9gqMpr9lS0zG7lGx4-12" edge="1">
          <mxGeometry relative="1" as="geometry">
            <mxPoint x="830" y="424" as="sourcePoint" />
            <mxPoint x="830" y="350" as="targetPoint" />
            <Array as="points">
              <mxPoint x="600" y="235" />
            </Array>
          </mxGeometry>
        </mxCell>
        <mxCell id="W-h9gqMpr9lS0zG7lGx4-24" style="edgeStyle=orthogonalEdgeStyle;rounded=0;orthogonalLoop=1;jettySize=auto;html=1;entryX=-0.011;entryY=0.333;entryDx=0;entryDy=0;endArrow=ERmany;endFill=0;startArrow=ERone;startFill=0;entryPerimeter=0;exitX=0.994;exitY=0.43;exitDx=0;exitDy=0;exitPerimeter=0;" parent="1" source="W-h9gqMpr9lS0zG7lGx4-8" target="W-h9gqMpr9lS0zG7lGx4-12" edge="1">
          <mxGeometry relative="1" as="geometry">
            <mxPoint x="440" y="390" as="sourcePoint" />
            <mxPoint x="799" y="245" as="targetPoint" />
            <Array as="points">
              <mxPoint x="600" y="383" />
              <mxPoint x="600" y="260" />
            </Array>
          </mxGeometry>
        </mxCell>
        <mxCell id="W-h9gqMpr9lS0zG7lGx4-26" style="edgeStyle=orthogonalEdgeStyle;rounded=0;orthogonalLoop=1;jettySize=auto;html=1;entryX=0;entryY=0.25;entryDx=0;entryDy=0;endArrow=ERmany;endFill=0;startArrow=ERone;startFill=0;exitX=0.75;exitY=1;exitDx=0;exitDy=0;" parent="1" source="cmmHMNiwm2tOop7mbwFN-16" target="W-h9gqMpr9lS0zG7lGx4-12" edge="1">
          <mxGeometry relative="1" as="geometry">
            <mxPoint x="770" y="440" as="sourcePoint" />
            <mxPoint x="799" y="284" as="targetPoint" />
            <Array as="points">
              <mxPoint x="385" y="250" />
            </Array>
          </mxGeometry>
        </mxCell>
        <mxCell id="W-h9gqMpr9lS0zG7lGx4-27" style="edgeStyle=orthogonalEdgeStyle;rounded=0;orthogonalLoop=1;jettySize=auto;html=1;endArrow=ERmany;endFill=0;startArrow=ERone;startFill=0;exitX=1;exitY=0.192;exitDx=0;exitDy=0;exitPerimeter=0;entryX=0.006;entryY=0.2;entryDx=0;entryDy=0;entryPerimeter=0;" parent="1" source="cmmHMNiwm2tOop7mbwFN-16" target="W-h9gqMpr9lS0zG7lGx4-6" edge="1">
          <mxGeometry relative="1" as="geometry">
            <mxPoint x="431.0799999999999" y="100" as="sourcePoint" />
            <mxPoint x="510" y="104" as="targetPoint" />
            <Array as="points">
              <mxPoint x="470" y="104" />
              <mxPoint x="470" y="103" />
            </Array>
          </mxGeometry>
        </mxCell>
        <mxCell id="W-h9gqMpr9lS0zG7lGx4-31" style="edgeStyle=orthogonalEdgeStyle;rounded=0;orthogonalLoop=1;jettySize=auto;html=1;endArrow=ERmany;endFill=0;startArrow=ERone;startFill=0;exitX=0.5;exitY=1;exitDx=0;exitDy=0;entryX=1;entryY=0.75;entryDx=0;entryDy=0;" parent="1" source="W-h9gqMpr9lS0zG7lGx4-17" target="W-h9gqMpr9lS0zG7lGx4-6" edge="1">
          <mxGeometry relative="1" as="geometry">
            <mxPoint x="260" y="141" as="sourcePoint" />
            <mxPoint x="120" y="20" as="targetPoint" />
          </mxGeometry>
        </mxCell>
        <mxCell id="W-h9gqMpr9lS0zG7lGx4-34" style="edgeStyle=orthogonalEdgeStyle;rounded=0;orthogonalLoop=1;jettySize=auto;html=1;endArrow=ERmany;endFill=0;startArrow=ERone;startFill=0;exitX=1.017;exitY=0.4;exitDx=0;exitDy=0;exitPerimeter=0;entryX=0;entryY=0.25;entryDx=0;entryDy=0;" parent="1" source="W-h9gqMpr9lS0zG7lGx4-2" target="W-h9gqMpr9lS0zG7lGx4-5" edge="1">
          <mxGeometry relative="1" as="geometry">
            <mxPoint x="260" y="141" as="sourcePoint" />
            <mxPoint x="500" y="-30" as="targetPoint" />
            <Array as="points">
              <mxPoint x="470" y="-44" />
              <mxPoint x="470" y="88" />
            </Array>
          </mxGeometry>
        </mxCell>
        <mxCell id="W-h9gqMpr9lS0zG7lGx4-35" style="edgeStyle=orthogonalEdgeStyle;rounded=0;orthogonalLoop=1;jettySize=auto;html=1;endArrow=ERmany;endFill=0;startArrow=ERone;startFill=0;exitX=1;exitY=0;exitDx=0;exitDy=0;entryX=0;entryY=0.325;entryDx=0;entryDy=0;entryPerimeter=0;" parent="1" source="W-h9gqMpr9lS0zG7lGx4-8" target="W-h9gqMpr9lS0zG7lGx4-6" edge="1">
          <mxGeometry relative="1" as="geometry">
            <mxPoint x="213" y="-34" as="sourcePoint" />
            <mxPoint x="520" y="114" as="targetPoint" />
            <Array as="points">
              <mxPoint x="470" y="340" />
              <mxPoint x="470" y="120" />
            </Array>
          </mxGeometry>
        </mxCell>
        <mxCell id="W-h9gqMpr9lS0zG7lGx4-36" style="edgeStyle=orthogonalEdgeStyle;rounded=0;orthogonalLoop=1;jettySize=auto;html=1;endArrow=ERmany;endFill=0;startArrow=ERone;startFill=0;exitX=0.75;exitY=1;exitDx=0;exitDy=0;entryX=1;entryY=0.75;entryDx=0;entryDy=0;" parent="1" source="W-h9gqMpr9lS0zG7lGx4-17" target="W-h9gqMpr9lS0zG7lGx4-12" edge="1">
          <mxGeometry relative="1" as="geometry">
            <mxPoint x="870" y="10" as="sourcePoint" />
            <mxPoint x="700" y="180" as="targetPoint" />
          </mxGeometry>
        </mxCell>
      </root>
    </mxGraphModel>
  </diagram>
</mxfile>
